<svg width="21" height="21" viewBox="0 0 21 21" fill="none" xmlns="http://www.w3.org/2000/svg">
<path d="M6.99043 3.94022L13.3849 10.5001L6.99043 17.06C6.87595 17.1772 6.81186 17.3345 6.81186 17.4983C6.81186 17.6622 6.87595 17.8195 6.99043 17.9367C7.04603 17.9935 7.1124 18.0386 7.18564 18.0693C7.25889 18.1001 7.33754 18.116 7.41699 18.116C7.49644 18.116 7.57509 18.1001 7.64834 18.0693C7.72158 18.0386 7.78795 17.9935 7.84355 17.9367L14.6476 10.9582C14.767 10.8356 14.8339 10.6712 14.8339 10.5001C14.8339 10.329 14.767 10.1646 14.6476 10.042L7.84487 3.06347C7.78922 3.00632 7.72269 2.9609 7.6492 2.92988C7.57571 2.89887 7.49676 2.88289 7.41699 2.88289C7.33722 2.88289 7.25827 2.89887 7.18478 2.92988C7.11129 2.9609 7.04476 3.00632 6.98912 3.06347C6.87464 3.18068 6.81055 3.33801 6.81055 3.50185C6.81055 3.66568 6.87464 3.82302 6.98912 3.94022L6.99043 3.94022Z" fill="white"/>
</svg>
