<svg width="240" height="240" viewBox="0 0 240 240" fill="none" xmlns="http://www.w3.org/2000/svg">
<g filter="url(#filter0_d_1328_2768)">
<circle cx="120" cy="120" r="75" fill="url(#paint0_linear_1328_2768)"/>
<circle cx="120" cy="120" r="73" stroke="url(#paint1_linear_1328_2768)" stroke-width="4"/>
</g>
<circle cx="120" cy="119.999" r="65" fill="#0D0812"/>
<g filter="url(#filter1_d_1328_2768)">
<path d="M148.8 121.246V110.467C148.8 96.9936 143.4 91.6042 129.9 91.6042H113.7C100.2 91.6042 94.8 96.9936 94.8 110.467V126.635C94.8 140.108 100.2 145.498 113.7 145.498H124.5" stroke="url(#paint2_linear_1328_2768)" stroke-width="2" stroke-linecap="round" stroke-linejoin="round"/>
<path d="M109.191 125.261L115.617 116.934C116.535 115.749 118.236 115.533 119.424 116.449L124.365 120.33C125.553 121.246 127.254 121.03 128.172 119.871L134.409 111.841" stroke="url(#paint3_linear_1328_2768)" stroke-width="2" stroke-linecap="round" stroke-linejoin="round"/>
<path d="M141.996 128.845L142.752 130.381C143.13 131.135 144.075 131.836 144.912 131.998L145.938 132.159C149.016 132.671 149.745 134.935 147.531 137.171L146.586 138.114C145.965 138.761 145.614 140.001 145.803 140.863L145.938 141.429C146.775 145.148 144.804 146.576 141.564 144.636L140.862 144.231C140.025 143.746 138.675 143.746 137.838 144.231L137.136 144.636C133.869 146.603 131.898 145.148 132.762 141.429L132.897 140.863C133.086 140.001 132.735 138.761 132.114 138.114L131.169 137.171C128.955 134.935 129.684 132.671 132.762 132.159L133.788 131.998C134.598 131.863 135.57 131.135 135.948 130.381L136.704 128.845C138.162 125.908 140.538 125.908 141.996 128.845Z" stroke="url(#paint4_linear_1328_2768)" stroke-width="2" stroke-linecap="round" stroke-linejoin="round"/>
</g>
<defs>
<filter id="filter0_d_1328_2768" x="1.14441e-05" y="0" width="240" height="240" filterUnits="userSpaceOnUse" color-interpolation-filters="sRGB">
<feFlood flood-opacity="0" result="BackgroundImageFix"/>
<feColorMatrix in="SourceAlpha" type="matrix" values="0 0 0 0 0 0 0 0 0 0 0 0 0 0 0 0 0 0 127 0" result="hardAlpha"/>
<feMorphology radius="15" operator="dilate" in="SourceAlpha" result="effect1_dropShadow_1328_2768"/>
<feOffset/>
<feGaussianBlur stdDeviation="15"/>
<feComposite in2="hardAlpha" operator="out"/>
<feColorMatrix type="matrix" values="0 0 0 0 0.0823529 0 0 0 0 0.866667 0 0 0 0 0.964706 0 0 0 0.26 0"/>
<feBlend mode="normal" in2="BackgroundImageFix" result="effect1_dropShadow_1328_2768"/>
<feBlend mode="normal" in="SourceGraphic" in2="effect1_dropShadow_1328_2768" result="shape"/>
</filter>
<filter id="filter1_d_1328_2768" x="73.8" y="70.6042" width="96.0156" height="95.9111" filterUnits="userSpaceOnUse" color-interpolation-filters="sRGB">
<feFlood flood-opacity="0" result="BackgroundImageFix"/>
<feColorMatrix in="SourceAlpha" type="matrix" values="0 0 0 0 0 0 0 0 0 0 0 0 0 0 0 0 0 0 127 0" result="hardAlpha"/>
<feOffset/>
<feGaussianBlur stdDeviation="10"/>
<feComposite in2="hardAlpha" operator="out"/>
<feColorMatrix type="matrix" values="0 0 0 0 0.054902 0 0 0 0 0.890196 0 0 0 0 0.976471 0 0 0 1 0"/>
<feBlend mode="normal" in2="BackgroundImageFix" result="effect1_dropShadow_1328_2768"/>
<feBlend mode="normal" in="SourceGraphic" in2="effect1_dropShadow_1328_2768" result="shape"/>
</filter>
<linearGradient id="paint0_linear_1328_2768" x1="63.9655" y1="160.517" x2="184.655" y2="76.0345" gradientUnits="userSpaceOnUse">
<stop stop-color="#F60690"/>
<stop offset="1" stop-color="#01F0FF"/>
</linearGradient>
<linearGradient id="paint1_linear_1328_2768" x1="63.9655" y1="160.517" x2="184.655" y2="76.0345" gradientUnits="userSpaceOnUse">
<stop stop-color="#F60690"/>
<stop offset="1" stop-color="#01F0FF"/>
</linearGradient>
<linearGradient id="paint2_linear_1328_2768" x1="101.628" y1="133.108" x2="145.019" y2="102.674" gradientUnits="userSpaceOnUse">
<stop stop-color="#F60690"/>
<stop offset="1" stop-color="#01F0FF"/>
</linearGradient>
<linearGradient id="paint3_linear_1328_2768" x1="112.38" y1="122.176" x2="123.452" y2="107.61" gradientUnits="userSpaceOnUse">
<stop stop-color="#F60690"/>
<stop offset="1" stop-color="#01F0FF"/>
</linearGradient>
<linearGradient id="paint4_linear_1328_2768" x1="132.279" y1="141.175" x2="147.479" y2="130.504" gradientUnits="userSpaceOnUse">
<stop stop-color="#F60690"/>
<stop offset="1" stop-color="#01F0FF"/>
</linearGradient>
</defs>
</svg>
