<svg width="172" height="172" viewBox="0 0 172 172" fill="none" xmlns="http://www.w3.org/2000/svg">
<g filter="url(#filter0_d_1328_2693)">
<path d="M150 63.5999C150 86.5758 131.376 105.2 108.4 105.2C107.312 105.2 106.16 105.136 105.072 105.072C103.472 84.7839 87.2161 68.5278 66.9282 66.9278C66.8642 65.8398 66.8003 64.6879 66.8003 63.5999C66.8003 40.6239 85.4242 22 108.4 22C131.376 22 150 40.6239 150 63.5999Z" stroke="url(#paint0_linear_1328_2693)" stroke-width="4" stroke-linecap="round" stroke-linejoin="round"/>
<path d="M105.2 108.4C105.2 131.376 86.5758 150 63.5999 150C40.6239 150 22 131.376 22 108.4C22 85.4242 40.6239 66.8003 63.5999 66.8003C64.6879 66.8003 65.8398 66.8642 66.9278 66.9282C87.2157 68.5282 103.472 84.7843 105.072 105.072C105.136 106.16 105.2 107.312 105.2 108.4Z" stroke="url(#paint1_linear_1328_2693)" stroke-width="4" stroke-linecap="round" stroke-linejoin="round"/>
<path d="M44.9759 22H28.4C24.88 22 22 24.88 22 28.4V44.9759C22 50.6719 28.9119 53.5518 32.9439 49.5198L49.5198 32.9439C53.4878 28.9119 50.6719 22 44.9759 22Z" stroke="url(#paint2_linear_1328_2693)" stroke-width="4" stroke-linecap="round" stroke-linejoin="round"/>
<path d="M127.024 150H143.6C147.12 150 150 147.12 150 143.6V127.024C150 121.328 143.088 118.448 139.056 122.48L122.48 139.056C118.512 143.088 121.328 150 127.024 150Z" stroke="url(#paint3_linear_1328_2693)" stroke-width="4" stroke-linecap="round" stroke-linejoin="round"/>
</g>
<defs>
<filter id="filter0_d_1328_2693" x="0" y="0" width="172" height="172" filterUnits="userSpaceOnUse" color-interpolation-filters="sRGB">
<feFlood flood-opacity="0" result="BackgroundImageFix"/>
<feColorMatrix in="SourceAlpha" type="matrix" values="0 0 0 0 0 0 0 0 0 0 0 0 0 0 0 0 0 0 127 0" result="hardAlpha"/>
<feOffset/>
<feGaussianBlur stdDeviation="10"/>
<feComposite in2="hardAlpha" operator="out"/>
<feColorMatrix type="matrix" values="0 0 0 0 0.054902 0 0 0 0 0.890196 0 0 0 0 0.976471 0 0 0 1 0"/>
<feBlend mode="normal" in2="BackgroundImageFix" result="effect1_dropShadow_1328_2693"/>
<feBlend mode="normal" in="SourceGraphic" in2="effect1_dropShadow_1328_2693" result="shape"/>
</filter>
<linearGradient id="paint0_linear_1328_2693" x1="77.3198" y1="86.0734" x2="144.262" y2="39.2137" gradientUnits="userSpaceOnUse">
<stop stop-color="#F60690"/>
<stop offset="1" stop-color="#01F0FF"/>
</linearGradient>
<linearGradient id="paint1_linear_1328_2693" x1="32.5195" y1="130.874" x2="99.4618" y2="84.014" gradientUnits="userSpaceOnUse">
<stop stop-color="#F60690"/>
<stop offset="1" stop-color="#01F0FF"/>
</linearGradient>
<linearGradient id="paint2_linear_1328_2693" x1="25.7138" y1="44.6425" x2="49.3624" y2="28.1046" gradientUnits="userSpaceOnUse">
<stop stop-color="#F60690"/>
<stop offset="1" stop-color="#01F0FF"/>
</linearGradient>
<linearGradient id="paint3_linear_1328_2693" x1="124.34" y1="143.241" x2="147.989" y2="126.703" gradientUnits="userSpaceOnUse">
<stop stop-color="#F60690"/>
<stop offset="1" stop-color="#01F0FF"/>
</linearGradient>
</defs>
</svg>
