<svg width="119" height="128" viewBox="0 0 119 128" fill="none" xmlns="http://www.w3.org/2000/svg">
<rect x="2" y="2" width="102.53" height="124" rx="3" stroke="url(#paint0_linear_1328_2847)" stroke-width="4"/>
<path d="M25.7104 60.8C23.8404 60.8 22.2222 61.7416 20.7495 63.0438C19.2767 64.346 17.9202 66.0989 16.7187 68.3326C14.3157 72.8101 12.5329 79.0905 12.5329 86.9236C12.5329 90.9403 13.434 95.0772 15.2459 98.3827C15.6432 99.1039 16.2924 99.5847 16.7962 100.226C15.4494 101.929 13.2305 105.114 13.2305 105.114L16.7962 108.8C16.7962 108.8 19.2573 105.294 20.827 103.351C21.825 103.792 22.7648 104.393 23.9276 104.393C28.1812 104.393 32.6189 102.469 36.7175 100.065C38.0352 101.107 39.5177 101.828 41.0583 101.828C46.1549 101.828 50.0306 98.7333 52.763 95.9787C53.5575 95.1773 54.0904 94.5864 54.7009 93.8952C54.6912 94.5964 54.6718 95.2374 54.8559 96.0588C55.0012 96.6798 55.1659 97.4511 55.7861 98.1423C56.4062 98.8334 57.5204 99.2642 58.4216 99.2642C60.2335 99.2642 61.2799 98.4027 62.3748 97.5814C63.4697 96.76 64.5065 95.7783 65.6304 94.8568C67.888 93.0137 70.291 91.5713 72.0641 91.5713V86.4428C68.1303 86.4428 65.0587 88.8468 62.6073 90.8501C61.4446 91.8017 60.3982 92.6331 59.5843 93.2541C59.5843 93.1139 59.5843 93.0839 59.5843 92.9336C59.6133 92.0021 59.749 90.9603 59.5843 89.8084C59.5068 89.2374 59.3227 88.6364 58.8091 87.8852C58.2956 87.1339 57.1426 86.4428 56.1736 86.4428C54.7784 86.4428 54.2648 87.0638 53.7707 87.4845C53.2765 87.9052 52.9083 88.3359 52.4529 88.8468C51.5421 89.8685 50.4569 91.1005 49.2748 92.2925C47.1916 94.396 44.7402 95.9887 42.066 96.3793C43.8391 94.9069 45.622 93.4445 46.8719 91.8117C48.5191 89.6682 49.7399 87.4845 49.7399 84.9202C49.7399 83.4778 49.5655 81.5046 48.4997 79.6314C47.4339 77.7583 45.1375 76.1857 42.2985 76.1857C39.2464 76.1857 36.4655 77.7383 34.7796 80.1924C33.0937 82.6465 32.3766 85.7917 32.3766 89.4879C32.3766 92.0021 32.9289 94.0855 33.6944 95.8985C30.245 97.7717 26.6696 99.2642 23.9276 99.2642C28.123 92.7633 32.3766 83.9086 32.3766 73.1406C32.3766 70.9069 32.396 68.2725 31.679 65.8485C31.3205 64.6364 30.7488 63.4044 29.7412 62.4027C28.7335 61.4011 27.2413 60.8 25.7104 60.8ZM25.7104 65.9286C26.1561 65.9286 26.1755 66.0187 26.3305 66.169C26.4855 66.3192 26.6696 66.6899 26.8731 67.371C27.2704 68.7233 27.4157 71.0071 27.4157 73.1406C27.4157 82.2258 23.6563 90.179 19.8968 96.1389C19.8096 95.9887 19.6739 95.9787 19.5867 95.8184C18.2981 93.4845 17.4938 90.0889 17.4938 86.9236C17.4938 79.8819 19.1217 74.4228 21.0595 70.8167C22.0285 69.0137 23.0265 67.6915 23.9276 66.8902C24.8287 66.0889 25.5941 65.9286 25.7104 65.9286ZM42.2985 81.3142C43.6744 81.3142 43.8779 81.6548 44.2364 82.2758C44.5949 82.8969 44.779 84.0488 44.779 84.9202C44.779 85.5613 44.2558 87.0538 42.9961 88.6865C41.9013 90.1089 40.2347 91.5814 38.4228 93.0137C37.9868 91.982 37.3376 91.2308 37.3376 89.4879C37.3376 86.5129 37.948 84.3393 38.8104 83.0772C39.6727 81.8151 40.6416 81.3142 42.2985 81.3142Z" fill="url(#paint1_linear_1328_2847)"/>
<path fill-rule="evenodd" clip-rule="evenodd" d="M78.674 26.4496C79.9616 21.5416 84.9011 18.6291 89.7064 19.9442L90.4102 20.1368C95.2157 21.4518 98.0675 26.4965 96.7798 31.4044L94.8704 38.6823L84.0465 79.9391C83.9056 80.4758 83.6245 80.9634 83.2333 81.3499L74.3331 90.139C73.5749 90.8878 72.4875 91.1753 71.4688 90.8967C70.45 90.6178 69.6491 89.8135 69.359 88.7778L65.954 76.6212C65.8044 76.0869 65.7997 75.521 65.9405 74.984L76.8278 33.4865L78.674 26.4496ZM88.1521 25.8686C86.5504 25.4302 84.9038 26.4011 84.4746 28.037L83.3909 32.168L89.862 34.0753L90.9791 29.817C91.4083 28.1811 90.4577 26.4995 88.8559 26.0611L88.1521 25.8686ZM88.3073 40.0008L81.8362 38.0934L71.9566 75.751L73.7564 82.177L78.461 77.5311L88.3073 40.0008Z" fill="url(#paint2_linear_1328_2847)"/>
<defs>
<linearGradient id="paint0_linear_1328_2847" x1="13.4693" y1="98.5747" x2="108.82" y2="43.025" gradientUnits="userSpaceOnUse">
<stop stop-color="#F60690"/>
<stop offset="1" stop-color="#01F0FF"/>
</linearGradient>
<linearGradient id="paint1_linear_1328_2847" x1="20.0598" y1="97.7656" x2="60.7559" y2="62.4347" gradientUnits="userSpaceOnUse">
<stop stop-color="#F60690"/>
<stop offset="1" stop-color="#01F0FF"/>
</linearGradient>
<linearGradient id="paint2_linear_1328_2847" x1="70.8497" y1="77.5064" x2="94.2994" y2="28.2856" gradientUnits="userSpaceOnUse">
<stop stop-color="#F60690"/>
<stop offset="1" stop-color="#01F0FF"/>
</linearGradient>
</defs>
</svg>
