<svg width="240" height="240" viewBox="0 0 240 240" fill="none" xmlns="http://www.w3.org/2000/svg">
<g filter="url(#filter0_d_1328_2756)">
<circle cx="120" cy="120" r="75" fill="url(#paint0_linear_1328_2756)"/>
<circle cx="120" cy="120" r="73" stroke="url(#paint1_linear_1328_2756)" stroke-width="4"/>
</g>
<circle cx="120" cy="119.999" r="65" fill="#0D0812"/>
<g filter="url(#filter1_d_1328_2756)">
<path d="M111.75 113.67C114.787 113.67 117.25 111.212 117.25 108.181C117.25 105.149 114.787 102.692 111.75 102.692C108.712 102.692 106.25 105.149 106.25 108.181C106.25 111.212 108.712 113.67 111.75 113.67Z" stroke="url(#paint2_linear_1328_2756)" stroke-width="2" stroke-linecap="round" stroke-linejoin="round"/>
<path d="M122.75 91.7134H111.75C97.9999 91.7134 92.4999 97.2025 92.4999 110.925V127.393C92.4999 141.116 97.9999 146.605 111.75 146.605H128.25C142 146.605 147.5 141.116 147.5 127.393V113.67" stroke="url(#paint3_linear_1328_2756)" stroke-width="2" stroke-linecap="round" stroke-linejoin="round"/>
<path d="M139.635 93.3327L129.652 103.296C129.267 103.68 128.882 104.421 128.827 104.97L128.277 108.785C128.085 110.157 129.047 111.118 130.422 110.925L134.245 110.377C134.767 110.294 135.537 109.937 135.922 109.553L145.905 99.5904C147.637 97.8613 148.435 95.8852 145.905 93.3602C143.347 90.7803 141.367 91.6037 139.635 93.3327Z" stroke="url(#paint4_linear_1328_2756)" stroke-width="2" stroke-miterlimit="10" stroke-linecap="round" stroke-linejoin="round"/>
<path d="M138.205 94.7598C139.057 97.7792 141.422 100.14 144.447 100.991" stroke="url(#paint5_linear_1328_2756)" stroke-width="2" stroke-miterlimit="10" stroke-linecap="round" stroke-linejoin="round"/>
<path d="M94.3423 138.234L107.9 129.149C110.072 127.695 113.207 127.86 115.16 129.534L116.067 130.33C118.212 132.169 121.677 132.169 123.822 130.33L135.262 120.531C137.407 118.693 140.872 118.693 143.017 120.531L147.5 124.374" stroke="url(#paint6_linear_1328_2756)" stroke-width="2" stroke-linecap="round" stroke-linejoin="round"/>
</g>
<defs>
<filter id="filter0_d_1328_2756" x="0" y="0" width="240" height="240" filterUnits="userSpaceOnUse" color-interpolation-filters="sRGB">
<feFlood flood-opacity="0" result="BackgroundImageFix"/>
<feColorMatrix in="SourceAlpha" type="matrix" values="0 0 0 0 0 0 0 0 0 0 0 0 0 0 0 0 0 0 127 0" result="hardAlpha"/>
<feMorphology radius="15" operator="dilate" in="SourceAlpha" result="effect1_dropShadow_1328_2756"/>
<feOffset/>
<feGaussianBlur stdDeviation="15"/>
<feComposite in2="hardAlpha" operator="out"/>
<feColorMatrix type="matrix" values="0 0 0 0 0.0823529 0 0 0 0 0.866667 0 0 0 0 0.964706 0 0 0 0.26 0"/>
<feBlend mode="normal" in2="BackgroundImageFix" result="effect1_dropShadow_1328_2756"/>
<feBlend mode="normal" in="SourceGraphic" in2="effect1_dropShadow_1328_2756" result="shape"/>
</filter>
<filter id="filter1_d_1328_2756" x="71.4999" y="70.7134" width="97.0173" height="96.8916" filterUnits="userSpaceOnUse" color-interpolation-filters="sRGB">
<feFlood flood-opacity="0" result="BackgroundImageFix"/>
<feColorMatrix in="SourceAlpha" type="matrix" values="0 0 0 0 0 0 0 0 0 0 0 0 0 0 0 0 0 0 127 0" result="hardAlpha"/>
<feOffset/>
<feGaussianBlur stdDeviation="10"/>
<feComposite in2="hardAlpha" operator="out"/>
<feColorMatrix type="matrix" values="0 0 0 0 0.054902 0 0 0 0 0.890196 0 0 0 0 0.976471 0 0 0 1 0"/>
<feBlend mode="normal" in2="BackgroundImageFix" result="effect1_dropShadow_1328_2756"/>
<feBlend mode="normal" in="SourceGraphic" in2="effect1_dropShadow_1328_2756" result="shape"/>
</filter>
<linearGradient id="paint0_linear_1328_2756" x1="63.9655" y1="160.517" x2="184.655" y2="76.0345" gradientUnits="userSpaceOnUse">
<stop stop-color="#F60690"/>
<stop offset="1" stop-color="#01F0FF"/>
</linearGradient>
<linearGradient id="paint1_linear_1328_2756" x1="63.9655" y1="160.517" x2="184.655" y2="76.0345" gradientUnits="userSpaceOnUse">
<stop stop-color="#F60690"/>
<stop offset="1" stop-color="#01F0FF"/>
</linearGradient>
<linearGradient id="paint2_linear_1328_2756" x1="107.641" y1="111.146" x2="116.48" y2="104.947" gradientUnits="userSpaceOnUse">
<stop stop-color="#F60690"/>
<stop offset="1" stop-color="#01F0FF"/>
</linearGradient>
<linearGradient id="paint3_linear_1328_2756" x1="99.454" y1="133.986" x2="143.649" y2="102.988" gradientUnits="userSpaceOnUse">
<stop stop-color="#F60690"/>
<stop offset="1" stop-color="#01F0FF"/>
</linearGradient>
<linearGradient id="paint4_linear_1328_2756" x1="130.689" y1="106.529" x2="146.172" y2="95.6726" gradientUnits="userSpaceOnUse">
<stop stop-color="#F60690"/>
<stop offset="1" stop-color="#01F0FF"/>
</linearGradient>
<linearGradient id="paint5_linear_1328_2756" x1="138.994" y1="99.5584" x2="144.011" y2="96.0403" gradientUnits="userSpaceOnUse">
<stop stop-color="#F60690"/>
<stop offset="1" stop-color="#01F0FF"/>
</linearGradient>
<linearGradient id="paint6_linear_1328_2756" x1="101.063" y1="133.847" x2="114.333" y2="107.972" gradientUnits="userSpaceOnUse">
<stop stop-color="#F60690"/>
<stop offset="1" stop-color="#01F0FF"/>
</linearGradient>
</defs>
</svg>
