<svg id="Layer_3" data-name="Layer 3" xmlns="http://www.w3.org/2000/svg" viewBox="0 0 233 254"><path d="M207.25,86.81c-2.29-4.22-7.54-9.46-15.5-13.64a.45.45,0,0,1,0-.11c-4.46-25.61-33.52-34.69-57.05-34.69-22.43,0-39.16,14.06-44.75,37.6A152.27,152.27,0,0,0,87,92.55c-4.13-.67-11.9-1.08-18.19,3.61-8.33,6.19-8.56,12.4-9.18,29l-.25,6.39c-.77,19.12-1.57,38.9,5.67,53.94,2.35,4.89,5.77,8.06,10.15,9.41a16.69,16.69,0,0,0,4.92.71,23.67,23.67,0,0,0,8-1.51c.84,9.15,1.64,16.77,2.13,20.53,1.4,10.87,5,22,21.19,22,11.83,0,20-4,25-12.16,2.86-4.67,3-12.32,3.09-19.07,0-1.66,0-3.23.12-4.64,0-.93.07-1.77.1-2.51s.06-1.79.11-2.48c2.58.75,8.65,1.27,14.92,1.36v15.26c0,7,3.25,15.33,18.76,15.33,7.05,0,13.13-2.22,17.12-6.25a14.29,14.29,0,0,0,4.41-10.14c0-1.35,0-2.8-.08-4.29-.09-4.21-.25-11.27.42-12.68l.08-.17c5.39-11.31,8.35-27.88,8.35-46.64a89.74,89.74,0,0,0-5.22-30.59C210.31,106.92,211.56,94.75,207.25,86.81Zm-4.4,2.38c4,7.34,1.67,18.74-12.49,27.66-17.45,11-47.59,6.92-53.86.39s-13-22.24-8.23-33c4.11-9.22,14-13.33,32.07-13.33C184.09,71,199,82.14,202.85,89.19ZM76.71,190.1c-3-.92-5.39-3.21-7.12-6.8-6.69-13.91-5.92-33.06-5.17-51.57l.25-6.41c.62-16.83,1-20.55,7.16-25.15,5-3.68,11.44-3.18,14.66-2.63C85,112.88,85,128.81,85,142.48c0,11.75,1.33,30.58,2.71,46.39C85.45,189.84,80.89,191.39,76.71,190.1ZM198.9,147.52c0,18-2.79,33.84-7.86,44.49l-.09.18c-1.1,2.31-1.07,7.19-.9,14.94,0,1.46.07,2.89.08,4.22a9.36,9.36,0,0,1-3,6.57c-3,3.08-7.87,4.77-13.57,4.77-12.34,0-13.76-5.9-13.76-10.33v-15.3a70.7,70.7,0,0,0,8.13-.62,2.5,2.5,0,0,0-.74-4.95,72.24,72.24,0,0,1-9.84.62h-.12c-7.06,0-14.25-.57-16.07-1.21-.91-.32-2.8-1-4.42.12-1.77,1.2-1.84,3.27-2,7,0,.73-.06,1.55-.1,2.46-.07,1.49-.09,3.09-.12,4.79-.09,5.81-.21,13-2.35,16.53-2.57,4.2-7.52,9.78-20.77,9.78-11.68,0-14.8-6.47-16.23-17.63-.54-4.2-1.49-13.25-2.44-23.88V190c-1.42-16-2.83-35.54-2.83-47.56,0-20,0-45,4.83-65.35,5.1-21.46,19.64-33.76,39.89-33.76,20.48,0,45.46,7.21,51.33,27.2A70,70,0,0,0,160.34,66c-12.61,0-30.12,1.69-36.64,16.29-5.74,12.87,1.65,30.6,9.19,38.46,4.26,4.43,16.49,8,29.94,8,10.38,0,21.48-2.13,30.2-7.62l1.47-1A87.23,87.23,0,0,1,198.9,147.52Z"/></svg>