<svg id="Layer_3" data-name="Layer 3" xmlns="http://www.w3.org/2000/svg" viewBox="0 0 269 328"><path d="M214.73,50.63c-24.38-21.82-63.47-22.45-67.84-22.45-10.8,0-29.38,1.35-32.49,10.43-1.28,3.76-1.59,8.08-1.86,11.89-.25,3.4-.5,6.91-1.47,8.11s-1.94,1.63-2.72,1.41c-1.18-.34-2.11-2.39-2.5-5.55C104.78,45.76,104.07,40,97.92,40a8.07,8.07,0,0,0-6.12,2.74c-3.55,3.9-4.9,11.58-3.89,22.22l.15,1.54c1.27,13.42,2.28,24-1.1,29.57-1,1.65-2.64,3.62-4.74,3.64h0c-1.71,0-3.49-1.3-5-3.67-2.33-3.64-2.53-7.8-2.74-12.21-.08-1.66-.17-3.38-.36-5.1C73.53,74.2,72,71.53,69.61,71c-2.82-.6-5.83,1.92-9.46,8-7.43,12.35-13.47,37.79-13.47,56.71,0,20,3.32,33.26,11.47,45.63,8.54,13,16.2,25.5,16.2,36.43a37.11,37.11,0,0,1-2.11,12.11A55.48,55.48,0,0,0,69.42,248c0,5.72,3,9.67,8,10.57,4.87.87,9.79-1.48,11.22-5.35,2-5.53,1.71-11.73,1.47-16.25-.05-.9-.09-1.74-.12-2.51-.09-2.82,1.67-7,3.92-9.32a5.07,5.07,0,0,1,3.29-1.77c3.25,0,9.29,11.3,9.29,22a45.7,45.7,0,0,1-.88,9.67,70.75,70.75,0,0,0-1.2,14.91c0,11,4.27,16.69,8.26,18.31a7.55,7.55,0,0,0,8.54-2.07c6-6.18,9.34-18.12,10.43-27.24.16-1.3.29-2.58.42-3.82.79-7.61,1.44-12.28,4.67-12.28,3.73,0,5.5,2.92,6.11,10.05l.08,1c.52,6.35,1.3,15.95,9.59,15.95a6.68,6.68,0,0,0,5.34-2.37c3.5-4.13,2.35-12.25,2.09-13.84-.47-2.8-.71-11.7,2.62-15.63a4.87,4.87,0,0,1,7.44-.13c3.81,4.13,4.48,14.74,4,20.87a72.83,72.83,0,0,1-1.9,9.71c-1.47,6.25-3.14,13.33-3.14,20.26,0,12.67,4.79,20.23,12.82,20.23,8.88,0,14.18-10.75,14.18-21.15,0-4.82-1.35-9.67-2.78-14.8-1.72-6.17-3.67-13.16-3.67-21.57,0-9.7,2.06-15.27,5.66-15.27,1.07,0,4.46,2.51,5.87,13.66,1.33,10.57,2.46,17.05,8.58,17.05,5.31,0,10.66-4.81,10.66-15.57,0-8.19,0-30,5.51-38.61a99.35,99.35,0,0,1,7.88-10.17c4.47-5.31,9.1-10.8,11.9-17.12,4.39-9.91,6.36-18.2,8.11-28.36,3.21-18.59,2.3-35.57-2.7-50.47C244.06,85.88,235.56,69.27,214.73,50.63Zm36,106c-1.71,9.94-3.63,18-7.89,27.65-2.63,5.93-7.11,11.26-11.45,16.4a101.42,101.42,0,0,0-8.12,10.5c-5.36,8.41-6,27-6,40.22,0,8.68-3.84,12.57-7.66,12.57-2.79,0-4.06-2.18-5.61-14.43-1.51-12-5.56-16.28-8.84-16.28-4,0-8.66,3.17-8.66,18.27,0,8.82,2,16,3.78,22.38,1.43,5.14,2.67,9.58,2.67,14,0,10-5,18.15-11.18,18.15S172,299.56,172,288.77c0-6.58,1.63-13.48,3.06-19.57A74.9,74.9,0,0,0,177,259c.05-.68,1.23-16.63-4.79-23.15a7.88,7.88,0,0,0-11.93.23c-4.37,5.16-3.71,15.56-3.29,18.06.5,3,.77,8.83-1.41,11.41a3.78,3.78,0,0,1-3.06,1.31c-5.11,0-6-6-6.6-13.19l-.09-1.06c-.29-3.5-1.09-12.8-9.09-12.8-6.09,0-6.82,6.94-7.65,15-.13,1.22-.26,2.49-.42,3.78-1,8.23-4.09,19.85-9.6,25.5a4.62,4.62,0,0,1-5.26,1.38c-3-1.2-6.39-6-6.39-15.53a67,67,0,0,1,1.15-14.37,48.48,48.48,0,0,0,.93-10.21c0-10.67-6.07-25-12.29-25a7.73,7.73,0,0,0-5.45,2.69C89,226,86.92,230.94,87,234.58c0,.79.07,1.66.12,2.58.24,4.5.54,10.1-1.28,15.05-.91,2.46-4.52,4-7.88,3.44-3.54-.63-5.57-3.41-5.57-7.62a52.08,52.08,0,0,1,2.7-17.32,40.24,40.24,0,0,0,2.23-13c0-11.76-7.89-24.73-16.69-38.08-7.8-11.84-11-24.58-11-44,0-18.47,5.85-43.21,13-55.16,4.1-6.82,6-6.62,6.26-6.57.74.16,1.71,1.84,2.09,5.14.19,1.63.27,3.29.35,4.9.22,4.61.45,9.38,3.22,13.69,2.1,3.26,4.77,5,7.54,5h.08c1.92,0,4.73-.92,7.26-5.08,3.9-6.4,2.85-17.44,1.52-31.42L90.9,64.7c-.9-9.5.24-16.76,3.12-19.92A5,5,0,0,1,97.92,43c3.23,0,3.86,2.88,5,11.87.71,5.73,2.91,7.52,4.64,8,2,.56,4.23-.37,5.89-2.42s1.8-5.39,2.12-9.77c.26-3.63.55-7.75,1.71-11.14,1.8-5.26,12.88-8.4,29.65-8.4,4.26,0,42.29.61,65.84,21.68,20.43,18.29,28.47,33.91,35.45,54.71C253,122,253.88,138.49,250.76,156.58Z"/><path d="M123.66,141.24a1.5,1.5,0,0,0,1.5-1.5V72.1a1.5,1.5,0,0,0-3,0v67.64A1.5,1.5,0,0,0,123.66,141.24Z"/><path d="M180.82,141.24a1.5,1.5,0,0,0,1.5-1.5V72.1a1.5,1.5,0,0,0-3,0v67.64A1.5,1.5,0,0,0,180.82,141.24Z"/><path d="M213.55,140.09a1.5,1.5,0,0,0-1.52,2.59,72.91,72.91,0,0,1,9.31,6.26c.37,3.46.83,12.57-1.18,16.6-2.12,4.23-4,4.24-11,4.21h-1.56a5.66,5.66,0,0,0-4.17,1.65c-2.72,2.76-2.64,8.21-2.57,13.48,0,3.24.1,7.28-.85,8.25a.49.49,0,0,1-.39.14c-3.19,0-4.92-1.34-7.55-3.37a38.77,38.77,0,0,0-8.24-5.16c-3.71-1.68-7.07-1.83-10-.46a11.43,11.43,0,0,0-5.82,7.24c-2.16,8-5.33,12.05-9.44,12.05-5.92,0-11-6-15-10.81-3.13-3.72-5.4-6.41-7.88-6.41-2.72,0-5.16,2.91-8,6.28s-6.28,7.51-9.54,7.51c-5.88,0-9.07-7.72-11.19-14.44-1.63-5.14-4.77-5.22-7.29-5.29a6.93,6.93,0,0,1-3.66-.76c-2.86-1.76-3.12-4.33-3.41-9.51L92.58,169c-.27-4.63-4.3-10.86-12.62-19.54l7.43-10.34a1.48,1.48,0,0,0-.34-2.09,1.5,1.5,0,0,0-2.09.34L68.64,160.09a1.51,1.51,0,0,0,.34,2.1,1.49,1.49,0,0,0,2.09-.35L78.19,152c3.76,3.92,11.08,12,11.39,17.23l.06,1.11c.28,5,.51,9.24,4.83,11.91a9.77,9.77,0,0,0,5.16,1.2c2.35.06,3.52.09,4.5,3.2,1.57,4.94,5.23,16.53,14.06,16.53,4.66,0,8.47-4.56,11.84-8.58,1.94-2.32,4.36-5.21,5.68-5.21,1.09,0,3.58,3,5.58,5.34,4.46,5.3,10,11.88,17.31,11.88,5.63,0,9.78-4.8,12.33-14.27a8.39,8.39,0,0,1,4.21-5.31c2.08-1,4.59-.82,7.47.48a36,36,0,0,1,7.64,4.8c2.77,2.15,5.17,4,9.38,4a3.46,3.46,0,0,0,2.52-1c1.84-1.86,1.78-5.81,1.72-10.39-.06-4.22-.13-9.47,1.71-11.33a2.65,2.65,0,0,1,2-.76h1.55c7.16,0,10.73,0,13.68-5.87,1.92-3.83,1.95-10.54,1.74-14.75a29.83,29.83,0,0,1,4.21,7.34,1.5,1.5,0,0,0,2.74-1.23C228.09,150.63,225.8,147.33,213.55,140.09Z"/></svg>