<svg xmlns="http://www.w3.org/2000/svg" xmlns:xlink="http://www.w3.org/1999/xlink" id="Layer_1" x="0px" y="0px" viewBox="0 0 700 700" style="enable-background:new 0 0 700 700;" xml:space="preserve"><style type="text/css">	.st0{fill:url(#SVGID_1_);}	.st1{fill:url(#SVGID_00000028300015872221956320000010544988592906331545_);}	.st2{fill:url(#SVGID_00000126299680319359915310000013092339769573102755_);}</style><g>	<linearGradient id="SVGID_1_" gradientUnits="userSpaceOnUse" x1="639.1857" y1="212.4048" x2="42.8084" y2="394.7921">		<stop offset="0" style="stop-color:#B7509E"></stop>		<stop offset="9.446254e-02" style="stop-color:#BA4F98"></stop>		<stop offset="0.252" style="stop-color:#C14A8B"></stop>		<stop offset="0.4532" style="stop-color:#CC4377"></stop>		<stop offset="0.6902" style="stop-color:#D9375D"></stop>		<stop offset="0.9546" style="stop-color:#E9213A"></stop>		<stop offset="1" style="stop-color:#ED1B32"></stop>	</linearGradient>	<path class="st0" d="M499.2,254.8c-46.8,0-89.3,27.6-108.4,70.3l-28.3,63.4l-61-137c-14.1-31.6-44.4-51.3-78.9-51.3c0,0,0,0,0,0  c-34.6,0-64.9,19.6-78.9,51.2l-36.5,81.8H69.5l-7.2,36.2h56.7c7.1,0,13.6-4.2,16.5-10.7l41.3-92.5c8.3-18.7,25.5-29.8,45.9-29.8  c10.2,0,19.6,2.8,27.5,7.9c7.9,5.1,14.3,12.6,18.4,21.9l13.1,29.3l57.1,128.3c4.2,9.4,13.6,15.5,23.9,15.5  c10.3,0,19.7-6.1,23.9-15.5l37.4-84c13.3-29.7,42.8-48.9,75.3-48.9h143.3l7.3-36.2H499.2z"></path>			<linearGradient id="SVGID_00000029740975750427323640000010356516007845695117_" gradientUnits="userSpaceOnUse" x1="683.5612" y1="357.5055" x2="87.1839" y2="539.8927">		<stop offset="0" style="stop-color:#B7509E"></stop>		<stop offset="9.446254e-02" style="stop-color:#BA4F98"></stop>		<stop offset="0.252" style="stop-color:#C14A8B"></stop>		<stop offset="0.4532" style="stop-color:#CC4377"></stop>		<stop offset="0.6902" style="stop-color:#D9375D"></stop>		<stop offset="0.9546" style="stop-color:#E9213A"></stop>		<stop offset="1" style="stop-color:#ED1B32"></stop>	</linearGradient>	<path style="fill:url(#SVGID_00000029740975750427323640000010356516007845695117_);" d="M498,387.3l-10.8,24.3h131.4l7.1-36.2  H516.3C508.4,375.4,501.2,380.1,498,387.3z"></path>			<linearGradient id="SVGID_00000075160929597824799510000015850525013229810617_" gradientUnits="userSpaceOnUse" x1="656.8624" y1="270.2047" x2="60.4851" y2="452.5919">		<stop offset="0" style="stop-color:#B7509E"></stop>		<stop offset="9.446254e-02" style="stop-color:#BA4F98"></stop>		<stop offset="0.252" style="stop-color:#C14A8B"></stop>		<stop offset="0.4532" style="stop-color:#CC4377"></stop>		<stop offset="0.6902" style="stop-color:#D9375D"></stop>		<stop offset="0.9546" style="stop-color:#E9213A"></stop>		<stop offset="1" style="stop-color:#ED1B32"></stop>	</linearGradient>	<path style="fill:url(#SVGID_00000075160929597824799510000015850525013229810617_);" d="M446,349.7l-37.5,84  c-8.3,18.7-25.5,29.8-45.9,29.8h0c-20.4,0-37.6-11.1-45.9-29.8l-13.1-29.3l-57.1-128.3c-4.2-9.4-13.6-15.5-23.9-15.5  c-10.3,0-19.7,6.1-23.9,15.5l-41.2,92.5c-6.8,15.2-21.9,25.1-38.6,25.1H57.5l-7.3,36.2H119c30.9,0,59-18.3,71.6-46.5l32-71.9  l61,137c14.1,31.6,44.3,51.3,78.9,51.3c0,0,0,0,0,0c34.6,0,64.9-19.6,78.9-51.2l37.5-84.1c3.5-8,11.5-13.1,20.2-13.1h131.2  l7.2-36.2H499.3C476.3,315.1,455.4,328.7,446,349.7z"></path></g></svg>